<?xml version="1.0" encoding="UTF-8" standalone="no"?>
<!-- Created with Inkscape (http://www.inkscape.org/) -->

<svg
   version="1.1"
   id="svg2"
   width="909.93335"
   height="220.39999"
   viewBox="0 0 909.93335 220.39999"
   sodipodi:docname="E10Help_NewLogoV2.ai"
   xmlns:inkscape="http://www.inkscape.org/namespaces/inkscape"
   xmlns:sodipodi="http://sodipodi.sourceforge.net/DTD/sodipodi-0.dtd"
   xmlns="http://www.w3.org/2000/svg"
   xmlns:svg="http://www.w3.org/2000/svg">
  <defs
     id="defs6">
    <linearGradient
       x1="0"
       y1="0"
       x2="1"
       y2="0"
       gradientUnits="userSpaceOnUse"
       gradientTransform="matrix(65.080635,0,0,-65.080635,57.287144,79.692543)"
       spreadMethod="pad"
       id="linearGradient26">
      <stop
         style="stop-opacity:1;stop-color:#dd5022"
         offset="0"
         id="stop22" />
      <stop
         style="stop-opacity:1;stop-color:#dd5022"
         offset="1"
         id="stop24" />
    </linearGradient>
    <linearGradient
       x1="0"
       y1="0"
       x2="1"
       y2="0"
       gradientUnits="userSpaceOnUse"
       gradientTransform="matrix(-63.034725,0,0,63.034725,171.59128,79.692543)"
       spreadMethod="pad"
       id="linearGradient46">
      <stop
         style="stop-opacity:1;stop-color:#00a8e7"
         offset="0"
         id="stop42" />
      <stop
         style="stop-opacity:1;stop-color:#00a8e7"
         offset="1"
         id="stop44" />
    </linearGradient>
    <clipPath
       clipPathUnits="userSpaceOnUse"
       id="clipPath56">
      <path
         d="M 0,165.3 H 682.45 V 0 H 0 Z"
         id="path54" />
    </clipPath>
  </defs>
  <sodipodi:namedview
     id="namedview4"
     pagecolor="#ffffff"
     bordercolor="#000000"
     borderopacity="0.25"
     inkscape:showpageshadow="2"
     inkscape:pageopacity="0.0"
     inkscape:pagecheckerboard="0"
     inkscape:deskcolor="#d1d1d1" />
  <g
     id="g8"
     inkscape:groupmode="layer"
     inkscape:label="E10Help_NewLogoV2"
     transform="matrix(1.3333333,0,0,-1.3333333,0,220.4)">
    <g
       id="g10">
      <g
         id="g12">
        <g
           id="g18">
          <g
             id="g20">
            <path
               d="m 72.142,128.731 c 0,-5.012 2.086,-9.644 5.562,-12.926 v 0 h -1.569 c -7.582,0 -13.751,-6.169 -13.751,-13.759 v 0 -57.682 c 0,-6.379 4.35,-11.827 10.372,-13.338 v 0 l 0.017,-16.129 c 0.007,-0.825 0.51,-1.569 1.269,-1.876 v 0 c 0.242,-0.097 0.501,-0.145 0.76,-0.145 v 0 c 0.533,0 1.067,0.218 1.455,0.614 v 0 l 16.501,17.115 h 19.191 c 0.339,0 0.68,0.016 1.011,0.04 v 0 c 0.67,0.049 1.326,0.146 1.972,0.292 v 0 c 0.615,0.128 1.221,0.306 1.811,0.525 v 0 c 1.875,0.703 3.557,1.803 4.948,3.193 v 0 c 0.38,0.38 0.735,0.784 1.066,1.213 v 0 c 0.316,0.388 0.599,0.792 0.858,1.212 v 0 c 1.326,2.111 2.093,4.608 2.093,7.284 v 0 57.682 c 0,2.675 -0.767,5.174 -2.093,7.283 v 0 h -2.078 c -0.938,0 -1.827,-0.177 -2.652,-0.5 v 0 c 1.714,-1.747 2.773,-4.14 2.773,-6.783 v 0 -57.682 c 0,-2.635 -1.059,-5.037 -2.773,-6.783 v 0 c -0.307,-0.323 -0.638,-0.623 -0.994,-0.889 v 0 c -0.364,-0.282 -0.743,-0.541 -1.148,-0.768 v 0 c -1.414,-0.809 -3.048,-1.269 -4.794,-1.269 v 0 H 91.9 c -0.549,0 -1.075,-0.226 -1.455,-0.622 v 0 L 76.815,19.901 76.799,32.715 c 0,1.027 -0.768,1.884 -1.787,2.004 v 0 c -4.891,0.566 -8.586,4.705 -8.586,9.645 v 0 57.682 c 0,5.36 4.358,9.709 9.709,9.709 v 0 h 8.796 c 0.995,0 1.843,0.72 1.997,1.706 v 0 c 0.161,0.978 -0.412,1.924 -1.35,2.239 v 0 c -5.618,1.876 -9.386,7.114 -9.386,13.031 v 0 c 0,7.576 6.161,13.736 13.736,13.736 v 0 c 7.574,0 13.735,-6.16 13.735,-13.736 v 0 c 0,-5.917 -3.767,-11.155 -9.386,-13.031 v 0 c -0.938,-0.315 -1.512,-1.261 -1.35,-2.239 v 0 c 0.154,-0.986 1.002,-1.706 1.989,-1.706 v 0 h 13.678 c 1.196,1.593 2.676,2.95 4.366,4.009 v 0 c -0.331,0.025 -0.672,0.041 -1.011,0.041 v 0 h -9.798 c 3.468,3.282 5.554,7.914 5.554,12.926 v 0 c 0,9.807 -7.971,17.778 -17.777,17.778 v 0 c -9.806,0 -17.786,-7.971 -17.786,-17.778"
               style="fill:url(#linearGradient26);stroke:none"
               id="path28" />
          </g>
        </g>
      </g>
    </g>
    <g
       id="g30">
      <g
         id="g32">
        <g
           id="g38">
          <g
             id="g40">
            <path
               d="m 124.035,128.731 c 0,-5.012 2.086,-9.644 5.562,-12.926 v 0 h -8.06 c -0.339,0 -0.68,-0.016 -1.01,-0.041 v 0 c -0.671,-0.047 -1.326,-0.145 -1.973,-0.29 v 0 c -0.614,-0.13 -1.221,-0.307 -1.811,-0.526 v 0 c -1.875,-0.703 -3.557,-1.803 -4.948,-3.193 v 0 c -0.38,-0.38 -0.735,-0.784 -1.066,-1.213 v 0 c -0.316,-0.387 -0.599,-0.792 -0.858,-1.213 v 0 c -1.326,-2.109 -2.093,-4.608 -2.093,-7.283 v 0 -57.682 c 0,-2.676 0.767,-5.173 2.093,-7.284 v 0 h 2.078 c 0.938,0 1.827,0.178 2.652,0.501 v 0 c -1.714,1.746 -2.773,4.148 -2.773,6.783 v 0 57.682 c 0,2.643 1.059,5.036 2.773,6.783 v 0 c 0.307,0.323 0.639,0.622 0.994,0.888 v 0 c 0.364,0.284 0.744,0.542 1.148,0.769 v 0 c 1.414,0.808 3.048,1.269 4.794,1.269 v 0 h 15.287 c 0.995,0 1.843,0.72 1.997,1.706 v 0 c 0.161,0.978 -0.412,1.924 -1.35,2.239 v 0 c -5.618,1.876 -9.386,7.114 -9.386,13.031 v 0 c 0,7.576 6.161,13.736 13.736,13.736 v 0 c 7.574,0 13.735,-6.16 13.735,-13.736 v 0 c 0,-5.917 -3.767,-11.155 -9.386,-13.031 v 0 c -0.938,-0.315 -1.512,-1.261 -1.35,-2.239 v 0 c 0.154,-0.986 1.002,-1.706 1.989,-1.706 v 0 h 10.542 c 5.352,0 9.709,-4.349 9.709,-9.709 v 0 -57.682 c 0,-5.271 -4.285,-9.628 -9.555,-9.709 v 0 c -1.068,-0.016 -1.925,-0.873 -1.965,-1.94 v 0 c -0.008,-0.13 0,-0.251 0.016,-0.364 v 0 -12.572 l -14.278,14.278 c -0.379,0.38 -0.889,0.598 -1.43,0.598 v 0 h -14.956 c -1.196,-1.593 -2.676,-2.951 -4.365,-4.01 v 0 c 0.33,-0.024 0.671,-0.04 1.01,-0.04 v 0 h 17.479 l 17.129,-17.139 c 0.389,-0.388 0.906,-0.59 1.432,-0.59 v 0 c 0.267,0 0.525,0.048 0.776,0.153 v 0 c 0.752,0.315 1.245,1.052 1.245,1.868 v 0 15.894 c 6.508,1.092 11.504,6.798 11.504,13.573 v 0 57.682 c 0,7.59 -6.169,13.759 -13.751,13.759 v 0 h -3.307 c 3.468,3.282 5.554,7.914 5.554,12.926 v 0 c 0,9.807 -7.971,17.778 -17.777,17.778 v 0 c -9.806,0 -17.786,-7.971 -17.786,-17.778"
               style="fill:url(#linearGradient46);stroke:none"
               id="path48" />
          </g>
        </g>
      </g>
    </g>
    <g
       id="g50">
      <g
         id="g52"
         clip-path="url(#clipPath56)">
        <g
           id="g58"
           transform="translate(202.0019,72.7504)">
          <path
             d="M 0,0 V 31.292 H 17.107 V 28.455 H 3.134 V 17.234 H 16.642 V 14.397 H 3.134 V 2.837 H 17.107 V 0 Z"
             style="fill:#00a8e7;fill-opacity:1;fill-rule:nonzero;stroke:none"
             id="path60" />
        </g>
        <g
           id="g62"
           transform="translate(202.0019,72.7504)">
          <path
             d="M 0,0 V 31.292 H 17.107 V 28.455 H 3.134 V 17.234 H 16.642 V 14.397 H 3.134 V 2.837 H 17.107 V 0 Z"
             style="fill:none;stroke:#00a8e7;stroke-width:3;stroke-linecap:butt;stroke-linejoin:miter;stroke-miterlimit:10;stroke-dasharray:none;stroke-opacity:1"
             id="path64" />
        </g>
        <g
           id="g66"
           transform="translate(244.9789,101.2054)">
          <path
             d="m 0,0 h -4.446 v -12.957 h 5.801 c 6.224,0 8.596,1.778 8.596,6.309 C 9.951,-0.296 5.97,0 0,0 M 1.567,-15.794 H -4.446 V -28.455 H -7.58 V 2.837 h 8.639 c 8.595,0 12.067,-2.921 12.067,-9.485 0,-5.928 -3.048,-9.146 -11.559,-9.146"
             style="fill:#00a8e7;fill-opacity:1;fill-rule:nonzero;stroke:none"
             id="path68" />
        </g>
        <g
           id="g70"
           transform="translate(244.9789,101.2054)">
          <path
             d="m 0,0 h -4.446 v -12.957 h 5.801 c 6.224,0 8.596,1.778 8.596,6.309 C 9.951,-0.296 5.97,0 0,0 Z M 1.567,-15.794 H -4.446 V -28.455 H -7.58 V 2.837 h 8.639 c 8.595,0 12.067,-2.921 12.067,-9.485 0,-5.928 -3.048,-9.146 -11.559,-9.146 z"
             style="fill:none;stroke:#00a8e7;stroke-width:3;stroke-linecap:butt;stroke-linejoin:miter;stroke-miterlimit:10;stroke-dasharray:none;stroke-opacity:1"
             id="path72" />
        </g>
        <path
           d="M 275.167,104.042 H 278.3 V 72.75 h -3.133 z"
           style="fill:#00a8e7;fill-opacity:1;fill-rule:nonzero;stroke:#00a8e7;stroke-width:3;stroke-linecap:butt;stroke-linejoin:miter;stroke-miterlimit:10;stroke-dasharray:none;stroke-opacity:1"
           id="path74" />
        <path
           d="m 480.31,78.086 h 3.133 v -5.335 h -3.133 z"
           style="fill:#000000;fill-opacity:1;fill-rule:nonzero;stroke:#000000;stroke-width:3;stroke-linecap:butt;stroke-linejoin:miter;stroke-miterlimit:4;stroke-dasharray:none;stroke-opacity:1"
           id="path76" />
        <g
           id="g78"
           transform="translate(308.0668,72.2001)">
          <path
             d="m 0,0 c -6.309,0 -10.628,3.811 -10.628,12.322 v 19.52 h 3.133 v -19.52 c 0,-6.394 2.625,-9.443 7.537,-9.443 4.828,0 7.495,3.049 7.495,9.443 v 19.52 h 3.134 V 12.322 C 10.671,3.811 6.352,0 0,0"
             style="fill:#000000;fill-opacity:1;fill-rule:nonzero;stroke:none"
             id="path80" />
        </g>
        <g
           id="g82"
           transform="translate(308.0668,72.2001)">
          <path
             d="m 0,0 c -6.309,0 -10.628,3.811 -10.628,12.322 v 19.52 h 3.133 v -19.52 c 0,-6.394 2.625,-9.443 7.537,-9.443 4.828,0 7.495,3.049 7.495,9.443 v 19.52 h 3.134 V 12.322 C 10.671,3.811 6.352,0 0,0 Z"
             style="fill:none;stroke:#000000;stroke-width:3;stroke-linecap:butt;stroke-linejoin:miter;stroke-miterlimit:4;stroke-dasharray:none;stroke-opacity:1"
             id="path84" />
        </g>
        <g
           id="g86"
           transform="translate(345.3695,72.2001)">
          <path
             d="m 0,0 c -5.632,0 -9.485,3.684 -9.782,9.315 h 3.345 C -5.97,5.124 -3.43,2.879 0.085,2.879 c 3.557,0 6.182,2.626 6.182,6.225 0,3.43 -1.61,4.912 -6.987,6.563 -3.641,1.102 -4.615,1.567 -5.843,2.752 -1.398,1.313 -2.202,3.388 -2.202,5.548 0,4.869 3.641,8.426 8.68,8.426 5.124,0 8.766,-3.388 8.766,-8.469 H 5.42 c 0,3.388 -2.413,5.59 -5.59,5.59 -3.133,0 -5.419,-2.329 -5.419,-5.463 0,-1.439 0.592,-2.879 1.482,-3.641 0.804,-0.72 1.778,-1.101 4.615,-1.948 C 3.727,17.488 5.039,16.895 6.309,15.964 8.299,14.482 9.442,12.025 9.442,9.273 9.442,3.938 5.42,0 0,0"
             style="fill:#000000;fill-opacity:1;fill-rule:nonzero;stroke:none"
             id="path88" />
        </g>
        <g
           id="g90"
           transform="translate(345.3695,72.2001)">
          <path
             d="m 0,0 c -5.632,0 -9.485,3.684 -9.782,9.315 h 3.345 C -5.97,5.124 -3.43,2.879 0.085,2.879 c 3.557,0 6.182,2.626 6.182,6.225 0,3.43 -1.61,4.912 -6.987,6.563 -3.641,1.102 -4.615,1.567 -5.843,2.752 -1.398,1.313 -2.202,3.388 -2.202,5.548 0,4.869 3.641,8.426 8.68,8.426 5.124,0 8.766,-3.388 8.766,-8.469 H 5.42 c 0,3.388 -2.413,5.59 -5.59,5.59 -3.133,0 -5.419,-2.329 -5.419,-5.463 0,-1.439 0.592,-2.879 1.482,-3.641 0.804,-0.72 1.778,-1.101 4.615,-1.948 C 3.727,17.488 5.039,16.895 6.309,15.964 8.299,14.482 9.442,12.025 9.442,9.273 9.442,3.938 5.42,0 0,0 Z"
             style="fill:none;stroke:#000000;stroke-width:3;stroke-linecap:butt;stroke-linejoin:miter;stroke-miterlimit:4;stroke-dasharray:none;stroke-opacity:1"
             id="path92" />
        </g>
        <g
           id="g94"
           transform="translate(371.6625,72.7504)">
          <path
             d="M 0,0 V 31.292 H 17.106 V 28.455 H 3.134 V 17.234 H 16.642 V 14.397 H 3.134 V 2.837 H 17.106 V 0 Z"
             style="fill:#000000;fill-opacity:1;fill-rule:nonzero;stroke:none"
             id="path96" />
        </g>
        <g
           id="g98"
           transform="translate(371.6625,72.7504)">
          <path
             d="M 0,0 V 31.292 H 17.106 V 28.455 H 3.134 V 17.234 H 16.642 V 14.397 H 3.134 V 2.837 H 17.106 V 0 Z"
             style="fill:none;stroke:#000000;stroke-width:3;stroke-linecap:butt;stroke-linejoin:miter;stroke-miterlimit:4;stroke-dasharray:none;stroke-opacity:1"
             id="path100" />
        </g>
        <g
           id="g102"
           transform="translate(419.0434,84.4374)">
          <path
             d="M 0,0 8.765,-11.687 H 4.869 L -5.675,2.499 c 8.766,0 11.73,1.524 11.73,7.156 0,5.208 -3.218,7.113 -10.501,7.113 h -4.405 v -28.455 h -3.133 v 31.292 h 7.75 C 5.589,19.605 9.23,16.048 9.23,9.528 9.23,3.98 6.013,0.635 0,0"
             style="fill:#000000;fill-opacity:1;fill-rule:nonzero;stroke:none"
             id="path104" />
        </g>
        <g
           id="g106"
           transform="translate(419.0434,84.4374)">
          <path
             d="M 0,0 8.765,-11.687 H 4.869 L -5.675,2.499 c 8.766,0 11.73,1.524 11.73,7.156 0,5.208 -3.218,7.113 -10.501,7.113 h -4.405 v -28.455 h -3.133 v 31.292 h 7.75 C 5.589,19.605 9.23,16.048 9.23,9.528 9.23,3.98 6.013,0.635 0,0 Z"
             style="fill:none;stroke:#000000;stroke-width:3;stroke-linecap:butt;stroke-linejoin:miter;stroke-miterlimit:4;stroke-dasharray:none;stroke-opacity:1"
             id="path108" />
        </g>
        <g
           id="g110"
           transform="translate(452.9574,72.2001)">
          <path
             d="m 0,0 c -5.632,0 -9.484,3.684 -9.781,9.315 h 3.345 C -5.97,5.124 -3.43,2.879 0.085,2.879 c 3.557,0 6.182,2.626 6.182,6.225 0,3.43 -1.609,4.912 -6.987,6.563 -3.641,1.102 -4.615,1.567 -5.843,2.752 -1.398,1.313 -2.203,3.388 -2.203,5.548 0,4.869 3.643,8.426 8.682,8.426 5.123,0 8.765,-3.388 8.765,-8.469 H 5.42 c 0,3.388 -2.413,5.59 -5.589,5.59 -3.133,0 -5.42,-2.329 -5.42,-5.463 0,-1.439 0.592,-2.879 1.483,-3.641 0.804,-0.72 1.777,-1.101 4.615,-1.948 C 3.727,17.488 5.039,16.895 6.31,15.964 8.3,14.482 9.443,12.025 9.443,9.273 9.443,3.938 5.42,0 0,0"
             style="fill:#000000;fill-opacity:1;fill-rule:nonzero;stroke:none"
             id="path112" />
        </g>
        <g
           id="g114"
           transform="translate(452.9574,72.2001)">
          <path
             d="m 0,0 c -5.632,0 -9.484,3.684 -9.781,9.315 h 3.345 C -5.97,5.124 -3.43,2.879 0.085,2.879 c 3.557,0 6.182,2.626 6.182,6.225 0,3.43 -1.609,4.912 -6.987,6.563 -3.641,1.102 -4.615,1.567 -5.843,2.752 -1.398,1.313 -2.203,3.388 -2.203,5.548 0,4.869 3.643,8.426 8.682,8.426 5.123,0 8.765,-3.388 8.765,-8.469 H 5.42 c 0,3.388 -2.413,5.59 -5.589,5.59 -3.133,0 -5.42,-2.329 -5.42,-5.463 0,-1.439 0.592,-2.879 1.483,-3.641 0.804,-0.72 1.777,-1.101 4.615,-1.948 C 3.727,17.488 5.039,16.895 6.31,15.964 8.3,14.482 9.443,12.025 9.443,9.273 9.443,3.938 5.42,0 0,0 Z"
             style="fill:none;stroke:#000000;stroke-width:3;stroke-linecap:butt;stroke-linejoin:miter;stroke-miterlimit:4;stroke-dasharray:none;stroke-opacity:1"
             id="path116" />
        </g>
        <g
           id="g118"
           transform="translate(523.0326,72.7504)">
          <path
             d="M 0,0 V 14.693 H -16.219 V 0 h -3.133 v 31.292 h 3.133 V 17.53 H 0 V 31.292 H 3.133 V 0 Z"
             style="fill:#000000;fill-opacity:1;fill-rule:nonzero;stroke:none"
             id="path120" />
        </g>
        <g
           id="g122"
           transform="translate(523.0326,72.7504)">
          <path
             d="M 0,0 V 14.693 H -16.219 V 0 h -3.133 v 31.292 h 3.133 V 17.53 H 0 V 31.292 H 3.133 V 0 Z"
             style="fill:none;stroke:#000000;stroke-width:3;stroke-linecap:butt;stroke-linejoin:miter;stroke-miterlimit:4;stroke-dasharray:none;stroke-opacity:1"
             id="path124" />
        </g>
        <g
           id="g126"
           transform="translate(545.3031,72.7504)">
          <path
             d="M 0,0 V 31.292 H 17.106 V 28.455 H 3.133 V 17.234 H 16.641 V 14.397 H 3.133 V 2.837 H 17.106 V 0 Z"
             style="fill:#000000;fill-opacity:1;fill-rule:nonzero;stroke:none"
             id="path128" />
        </g>
        <g
           id="g130"
           transform="translate(545.3031,72.7504)">
          <path
             d="M 0,0 V 31.292 H 17.106 V 28.455 H 3.133 V 17.234 H 16.641 V 14.397 H 3.133 V 2.837 H 17.106 V 0 Z"
             style="fill:none;stroke:#000000;stroke-width:3;stroke-linecap:butt;stroke-linejoin:miter;stroke-miterlimit:4;stroke-dasharray:none;stroke-opacity:1"
             id="path132" />
        </g>
        <g
           id="g134"
           transform="translate(580.6996,72.7504)">
          <path
             d="M 0,0 V 31.292 H 3.134 V 2.837 H 16.092 V 0 Z"
             style="fill:#000000;fill-opacity:1;fill-rule:nonzero;stroke:none"
             id="path136" />
        </g>
        <g
           id="g138"
           transform="translate(580.6996,72.7504)">
          <path
             d="M 0,0 V 31.292 H 3.134 V 2.837 H 16.092 V 0 Z"
             style="fill:none;stroke:#000000;stroke-width:3;stroke-linecap:butt;stroke-linejoin:miter;stroke-miterlimit:4;stroke-dasharray:none;stroke-opacity:1"
             id="path140" />
        </g>
        <g
           id="g142"
           transform="translate(620.5424,101.2054)">
          <path
             d="m 0,0 h -4.446 v -12.957 h 5.801 c 6.225,0 8.596,1.778 8.596,6.309 C 9.951,-0.296 5.971,0 0,0 M 1.566,-15.794 H -4.446 V -28.455 H -7.58 V 2.837 h 8.639 c 8.595,0 12.068,-2.921 12.068,-9.485 0,-5.928 -3.049,-9.146 -11.561,-9.146"
             style="fill:#000000;fill-opacity:1;fill-rule:nonzero;stroke:none"
             id="path144" />
        </g>
        <g
           id="g146"
           transform="translate(620.5424,101.2054)">
          <path
             d="m 0,0 h -4.446 v -12.957 h 5.801 c 6.225,0 8.596,1.778 8.596,6.309 C 9.951,-0.296 5.971,0 0,0 Z M 1.566,-15.794 H -4.446 V -28.455 H -7.58 V 2.837 h 8.639 c 8.595,0 12.068,-2.921 12.068,-9.485 0,-5.928 -3.049,-9.146 -11.561,-9.146 z"
             style="fill:none;stroke:#000000;stroke-width:3;stroke-linecap:butt;stroke-linejoin:miter;stroke-miterlimit:4;stroke-dasharray:none;stroke-opacity:1"
             id="path148" />
        </g>
        <g
           id="g150"
           transform="translate(203.1835,54.6888)">
          <path
             d="m 0,0 v -11.331 h 3.571 c 1.558,0 2.891,0.554 3.999,1.661 1.106,1.107 1.66,2.444 1.66,4.011 0,1.567 -0.554,2.902 -1.66,4.005 C 6.462,-0.552 5.129,0 3.571,0 Z m 0,-12.526 v -7.286 H -1.182 V 1.195 h 5.515 c 1.602,-0.219 2.963,-0.889 4.083,-2.009 1.339,-1.339 2.009,-2.955 2.009,-4.845 0,-1.9 -0.67,-3.519 -2.009,-4.858 -1.339,-1.339 -2.954,-2.009 -4.845,-2.009 z"
             style="fill:#444444;fill-opacity:1;fill-rule:nonzero;stroke:none"
             id="path152" />
        </g>
        <g
           id="g154"
           transform="translate(203.1835,54.6888)">
          <path
             d="m 0,0 v -11.331 h 3.571 c 1.558,0 2.891,0.554 3.999,1.661 1.106,1.107 1.66,2.444 1.66,4.011 0,1.567 -0.554,2.902 -1.66,4.005 C 6.462,-0.552 5.129,0 3.571,0 Z m 0,-12.526 v -7.286 H -1.182 V 1.195 h 5.515 c 1.602,-0.219 2.963,-0.889 4.083,-2.009 1.339,-1.339 2.009,-2.955 2.009,-4.845 0,-1.9 -0.67,-3.519 -2.009,-4.858 -1.339,-1.339 -2.954,-2.009 -4.845,-2.009 z"
             style="fill:none;stroke:#000000;stroke-width:2;stroke-linecap:butt;stroke-linejoin:miter;stroke-miterlimit:10;stroke-dasharray:none;stroke-opacity:1"
             id="path156" />
        </g>
        <g
           id="g158"
           transform="translate(242.4066,55.8837)">
          <path
             d="M 0,0 V -1.182 H -9.322 V -9.913 H 0 v -1.182 h -9.322 v -8.731 H 0 v -1.181 H -10.504 V 0 Z"
             style="fill:#444444;fill-opacity:1;fill-rule:nonzero;stroke:none"
             id="path160" />
        </g>
        <g
           id="g162"
           transform="translate(242.4066,55.8837)">
          <path
             d="M 0,0 V -1.182 H -9.322 V -9.913 H 0 v -1.182 h -9.322 v -8.731 H 0 v -1.181 H -10.504 V 0 Z"
             style="fill:none;stroke:#000000;stroke-width:2;stroke-linecap:butt;stroke-linejoin:miter;stroke-miterlimit:10;stroke-dasharray:none;stroke-opacity:1"
             id="path164" />
        </g>
        <g
           id="g166"
           transform="translate(272.123,55.8837)">
          <path
             d="M 0,0 V -1.182 H -9.322 V -9.913 H 0 v -1.182 h -9.322 v -8.731 H 0 v -1.181 H -10.503 V 0 Z"
             style="fill:#444444;fill-opacity:1;fill-rule:nonzero;stroke:none"
             id="path168" />
        </g>
        <g
           id="g170"
           transform="translate(272.123,55.8837)">
          <path
             d="M 0,0 V -1.182 H -9.322 V -9.913 H 0 v -1.182 h -9.322 v -8.731 H 0 v -1.181 H -10.503 V 0 Z"
             style="fill:none;stroke:#000000;stroke-width:2;stroke-linecap:butt;stroke-linejoin:miter;stroke-miterlimit:10;stroke-dasharray:none;stroke-opacity:1"
             id="path172" />
        </g>
        <g
           id="g174"
           transform="translate(292.518,54.6888)">
          <path
             d="m 0,0 v -11.331 h 3.571 c 1.558,0 2.89,0.554 3.999,1.661 1.106,1.107 1.66,2.444 1.66,4.011 0,1.567 -0.554,2.902 -1.66,4.005 C 6.461,-0.552 5.129,0 3.571,0 Z M 3.926,-12.513 C 3.812,-12.521 3.694,-12.526 3.571,-12.526 H 0 v -7.286 H -1.182 V 1.195 h 5.515 c 1.602,-0.219 2.963,-0.889 4.083,-2.009 1.339,-1.339 2.009,-2.955 2.009,-4.845 0,-1.9 -0.67,-3.519 -2.009,-4.858 -0.928,-0.928 -1.991,-1.536 -3.19,-1.825 l 4.844,-7.47 H 8.613 Z"
             style="fill:#444444;fill-opacity:1;fill-rule:nonzero;stroke:none"
             id="path176" />
        </g>
        <g
           id="g178"
           transform="translate(292.518,54.6888)">
          <path
             d="m 0,0 v -11.331 h 3.571 c 1.558,0 2.89,0.554 3.999,1.661 1.106,1.107 1.66,2.444 1.66,4.011 0,1.567 -0.554,2.902 -1.66,4.005 C 6.461,-0.552 5.129,0 3.571,0 Z M 3.926,-12.513 C 3.812,-12.521 3.694,-12.526 3.571,-12.526 H 0 v -7.286 H -1.182 V 1.195 h 5.515 c 1.602,-0.219 2.963,-0.889 4.083,-2.009 1.339,-1.339 2.009,-2.955 2.009,-4.845 0,-1.9 -0.67,-3.519 -2.009,-4.858 -0.928,-0.928 -1.991,-1.536 -3.19,-1.825 l 4.844,-7.47 H 8.613 Z"
             style="fill:none;stroke:#000000;stroke-width:2;stroke-linecap:butt;stroke-linejoin:miter;stroke-miterlimit:10;stroke-dasharray:none;stroke-opacity:1"
             id="path180" />
        </g>
        <g
           id="g182"
           transform="translate(333.5531,46.1805)">
          <path
             d="m 0,0 c 1.646,-0.954 2.84,-1.431 3.584,-1.431 0.132,0 0.25,0.013 0.355,0.039 0.674,0.202 1.146,0.64 1.418,1.313 0.131,0.333 0.197,0.67 0.197,1.012 L 6.749,0.749 C 6.714,0.329 6.613,-0.096 6.447,-0.525 6.044,-1.497 5.361,-2.144 4.398,-2.468 4.18,-2.538 3.935,-2.573 3.663,-2.573 c -0.919,0 -2.136,0.433 -3.65,1.3 -1.663,0.954 -2.862,1.431 -3.597,1.431 -0.123,0 -0.237,-0.013 -0.342,-0.04 -0.674,-0.201 -1.146,-0.639 -1.418,-1.312 -0.131,-0.342 -0.201,-0.679 -0.21,-1.012 l -1.181,0.184 c 0.017,0.42 0.113,0.845 0.289,1.274 0.402,0.972 1.089,1.619 2.061,1.943 C -4.167,1.265 -3.926,1.3 -3.663,1.3 -2.735,1.3 -1.514,0.867 0,0"
             style="fill:#444444;fill-opacity:1;fill-rule:nonzero;stroke:none"
             id="path184" />
        </g>
        <g
           id="g186"
           transform="translate(333.5531,46.1805)">
          <path
             d="m 0,0 c 1.646,-0.954 2.84,-1.431 3.584,-1.431 0.132,0 0.25,0.013 0.355,0.039 0.674,0.202 1.146,0.64 1.418,1.313 0.131,0.333 0.197,0.67 0.197,1.012 L 6.749,0.749 C 6.714,0.329 6.613,-0.096 6.447,-0.525 6.044,-1.497 5.361,-2.144 4.398,-2.468 4.18,-2.538 3.935,-2.573 3.663,-2.573 c -0.919,0 -2.136,0.433 -3.65,1.3 -1.663,0.954 -2.862,1.431 -3.597,1.431 -0.123,0 -0.237,-0.013 -0.342,-0.04 -0.674,-0.201 -1.146,-0.639 -1.418,-1.312 -0.131,-0.342 -0.201,-0.679 -0.21,-1.012 l -1.181,0.184 c 0.017,0.42 0.113,0.845 0.289,1.274 0.402,0.972 1.089,1.619 2.061,1.943 C -4.167,1.265 -3.926,1.3 -3.663,1.3 -2.735,1.3 -1.514,0.867 0,0 Z"
             style="fill:none;stroke:#000000;stroke-width:2;stroke-linecap:butt;stroke-linejoin:miter;stroke-miterlimit:10;stroke-dasharray:none;stroke-opacity:1"
             id="path188" />
        </g>
        <g
           id="g190"
           transform="translate(368.2787,40.5677)">
          <path
             d="m 0,0 c 1.449,1.081 2.729,2.04 3.841,2.875 1.112,0.836 2.144,1.775 3.098,2.817 0.955,1.041 1.432,2.254 1.432,3.637 0,1.391 -0.49,2.577 -1.471,3.558 -0.98,0.98 -2.166,1.47 -3.557,1.47 -1.375,0 -2.557,-0.49 -3.546,-1.47 -0.84,-0.841 -1.321,-1.843 -1.443,-3.007 l -1.196,0.433 c 0.201,1.313 0.788,2.46 1.76,3.44 1.226,1.234 2.7,1.851 4.425,1.851 1.732,0 3.21,-0.612 4.43,-1.837 C 8.995,12.541 9.605,11.062 9.605,9.329 9.605,7.604 9.006,6.099 7.807,4.812 6.992,3.928 6.029,3.07 4.918,2.239 3.807,1.407 2.555,0.471 1.163,-0.571 -0.229,-1.613 -1.096,-2.926 -1.437,-4.51 H 9.605 V -5.691 H -2.776 C -2.373,-2.978 -1.448,-1.081 0,0"
             style="fill:#444444;fill-opacity:1;fill-rule:nonzero;stroke:none"
             id="path192" />
        </g>
        <g
           id="g194"
           transform="translate(368.2787,40.5677)">
          <path
             d="m 0,0 c 1.449,1.081 2.729,2.04 3.841,2.875 1.112,0.836 2.144,1.775 3.098,2.817 0.955,1.041 1.432,2.254 1.432,3.637 0,1.391 -0.49,2.577 -1.471,3.558 -0.98,0.98 -2.166,1.47 -3.557,1.47 -1.375,0 -2.557,-0.49 -3.546,-1.47 -0.84,-0.841 -1.321,-1.843 -1.443,-3.007 l -1.196,0.433 c 0.201,1.313 0.788,2.46 1.76,3.44 1.226,1.234 2.7,1.851 4.425,1.851 1.732,0 3.21,-0.612 4.43,-1.837 C 8.995,12.541 9.605,11.062 9.605,9.329 9.605,7.604 9.006,6.099 7.807,4.812 6.992,3.928 6.029,3.07 4.918,2.239 3.807,1.407 2.555,0.471 1.163,-0.571 -0.229,-1.613 -1.096,-2.926 -1.437,-4.51 H 9.605 V -5.691 H -2.776 C -2.373,-2.978 -1.448,-1.081 0,0 Z"
             style="fill:none;stroke:#000000;stroke-width:2;stroke-linecap:butt;stroke-linejoin:miter;stroke-miterlimit:10;stroke-dasharray:none;stroke-opacity:1"
             id="path196" />
        </g>
        <g
           id="g198"
           transform="translate(409.7543,46.1805)">
          <path
             d="m 0,0 c 1.646,-0.954 2.841,-1.431 3.585,-1.431 0.131,0 0.249,0.013 0.354,0.039 0.674,0.202 1.147,0.64 1.418,1.313 0.131,0.333 0.197,0.67 0.197,1.012 L 6.749,0.749 C 6.714,0.329 6.613,-0.096 6.447,-0.525 6.044,-1.497 5.361,-2.144 4.398,-2.468 4.18,-2.538 3.935,-2.573 3.663,-2.573 c -0.919,0 -2.136,0.433 -3.649,1.3 -1.663,0.954 -2.863,1.431 -3.598,1.431 -0.123,0 -0.236,-0.013 -0.342,-0.04 -0.674,-0.201 -1.146,-0.639 -1.418,-1.312 -0.131,-0.342 -0.201,-0.679 -0.21,-1.012 l -1.181,0.184 c 0.017,0.42 0.114,0.845 0.289,1.274 0.402,0.972 1.09,1.619 2.061,1.943 C -4.166,1.265 -3.926,1.3 -3.663,1.3 -2.735,1.3 -1.514,0.867 0,0"
             style="fill:#444444;fill-opacity:1;fill-rule:nonzero;stroke:none"
             id="path200" />
        </g>
        <g
           id="g202"
           transform="translate(409.7543,46.1805)">
          <path
             d="m 0,0 c 1.646,-0.954 2.841,-1.431 3.585,-1.431 0.131,0 0.249,0.013 0.354,0.039 0.674,0.202 1.147,0.64 1.418,1.313 0.131,0.333 0.197,0.67 0.197,1.012 L 6.749,0.749 C 6.714,0.329 6.613,-0.096 6.447,-0.525 6.044,-1.497 5.361,-2.144 4.398,-2.468 4.18,-2.538 3.935,-2.573 3.663,-2.573 c -0.919,0 -2.136,0.433 -3.649,1.3 -1.663,0.954 -2.863,1.431 -3.598,1.431 -0.123,0 -0.236,-0.013 -0.342,-0.04 -0.674,-0.201 -1.146,-0.639 -1.418,-1.312 -0.131,-0.342 -0.201,-0.679 -0.21,-1.012 l -1.181,0.184 c 0.017,0.42 0.114,0.845 0.289,1.274 0.402,0.972 1.09,1.619 2.061,1.943 C -4.166,1.265 -3.926,1.3 -3.663,1.3 -2.735,1.3 -1.514,0.867 0,0 Z"
             style="fill:none;stroke:#000000;stroke-width:2;stroke-linecap:butt;stroke-linejoin:miter;stroke-miterlimit:10;stroke-dasharray:none;stroke-opacity:1"
             id="path204" />
        </g>
        <g
           id="g206"
           transform="translate(442.807,54.6888)">
          <path
             d="m 0,0 v -11.331 h 3.571 c 1.558,0 2.89,0.554 3.998,1.661 1.107,1.107 1.66,2.444 1.66,4.011 0,1.567 -0.553,2.902 -1.66,4.005 C 6.461,-0.552 5.129,0 3.571,0 Z m 0,-12.526 v -7.286 H -1.182 V 1.195 h 5.515 c 1.602,-0.219 2.963,-0.889 4.083,-2.009 1.339,-1.339 2.009,-2.955 2.009,-4.845 0,-1.9 -0.67,-3.519 -2.009,-4.858 -1.34,-1.339 -2.954,-2.009 -4.845,-2.009 z"
             style="fill:#444444;fill-opacity:1;fill-rule:nonzero;stroke:none"
             id="path208" />
        </g>
        <g
           id="g210"
           transform="translate(442.807,54.6888)">
          <path
             d="m 0,0 v -11.331 h 3.571 c 1.558,0 2.89,0.554 3.998,1.661 1.107,1.107 1.66,2.444 1.66,4.011 0,1.567 -0.553,2.902 -1.66,4.005 C 6.461,-0.552 5.129,0 3.571,0 Z m 0,-12.526 v -7.286 H -1.182 V 1.195 h 5.515 c 1.602,-0.219 2.963,-0.889 4.083,-2.009 1.339,-1.339 2.009,-2.955 2.009,-4.845 0,-1.9 -0.67,-3.519 -2.009,-4.858 -1.34,-1.339 -2.954,-2.009 -4.845,-2.009 z"
             style="fill:none;stroke:#000000;stroke-width:2;stroke-linecap:butt;stroke-linejoin:miter;stroke-miterlimit:10;stroke-dasharray:none;stroke-opacity:1"
             id="path212" />
        </g>
        <g
           id="g214"
           transform="translate(482.0297,55.8837)">
          <path
             d="M 0,0 V -1.182 H -9.322 V -9.913 H 0 v -1.182 h -9.322 v -8.731 H 0 v -1.181 H -10.504 V 0 Z"
             style="fill:#444444;fill-opacity:1;fill-rule:nonzero;stroke:none"
             id="path216" />
        </g>
        <g
           id="g218"
           transform="translate(482.0297,55.8837)">
          <path
             d="M 0,0 V -1.182 H -9.322 V -9.913 H 0 v -1.182 h -9.322 v -8.731 H 0 v -1.181 H -10.504 V 0 Z"
             style="fill:none;stroke:#000000;stroke-width:2;stroke-linecap:butt;stroke-linejoin:miter;stroke-miterlimit:10;stroke-dasharray:none;stroke-opacity:1"
             id="path220" />
        </g>
        <g
           id="g222"
           transform="translate(511.7465,55.8837)">
          <path
             d="M 0,0 V -1.182 H -9.322 V -9.913 H 0 v -1.182 h -9.322 v -8.731 H 0 v -1.181 H -10.504 V 0 Z"
             style="fill:#444444;fill-opacity:1;fill-rule:nonzero;stroke:none"
             id="path224" />
        </g>
        <g
           id="g226"
           transform="translate(511.7465,55.8837)">
          <path
             d="M 0,0 V -1.182 H -9.322 V -9.913 H 0 v -1.182 h -9.322 v -8.731 H 0 v -1.181 H -10.504 V 0 Z"
             style="fill:none;stroke:#000000;stroke-width:2;stroke-linecap:butt;stroke-linejoin:miter;stroke-miterlimit:10;stroke-dasharray:none;stroke-opacity:1"
             id="path228" />
        </g>
        <g
           id="g230"
           transform="translate(532.142,54.6888)">
          <path
             d="m 0,0 v -11.331 h 3.571 c 1.558,0 2.89,0.554 3.998,1.661 1.107,1.107 1.66,2.444 1.66,4.011 0,1.567 -0.553,2.902 -1.66,4.005 C 6.461,-0.552 5.129,0 3.571,0 Z M 3.926,-12.513 C 3.812,-12.521 3.693,-12.526 3.571,-12.526 H 0 v -7.286 H -1.182 V 1.195 h 5.514 c 1.603,-0.219 2.963,-0.889 4.084,-2.009 1.339,-1.339 2.009,-2.955 2.009,-4.845 0,-1.9 -0.67,-3.519 -2.009,-4.858 -0.928,-0.928 -1.991,-1.536 -3.19,-1.825 l 4.844,-7.47 H 8.612 Z"
             style="fill:#444444;fill-opacity:1;fill-rule:nonzero;stroke:none"
             id="path232" />
        </g>
        <g
           id="g234"
           transform="translate(532.142,54.6888)">
          <path
             d="m 0,0 v -11.331 h 3.571 c 1.558,0 2.89,0.554 3.998,1.661 1.107,1.107 1.66,2.444 1.66,4.011 0,1.567 -0.553,2.902 -1.66,4.005 C 6.461,-0.552 5.129,0 3.571,0 Z M 3.926,-12.513 C 3.812,-12.521 3.693,-12.526 3.571,-12.526 H 0 v -7.286 H -1.182 V 1.195 h 5.514 c 1.603,-0.219 2.963,-0.889 4.084,-2.009 1.339,-1.339 2.009,-2.955 2.009,-4.845 0,-1.9 -0.67,-3.519 -2.009,-4.858 -0.928,-0.928 -1.991,-1.536 -3.19,-1.825 l 4.844,-7.47 H 8.612 Z"
             style="fill:none;stroke:#000000;stroke-width:2;stroke-linecap:butt;stroke-linejoin:miter;stroke-miterlimit:10;stroke-dasharray:none;stroke-opacity:1"
             id="path236" />
        </g>
      </g>
    </g>
  </g>
</svg>
