<svg xmlns="http://www.w3.org/2000/svg" xmlns:xlink="http://www.w3.org/1999/xlink" width="1080" zoomAndPan="magnify" viewBox="0 0 810 809.999993" height="1080" preserveAspectRatio="xMidYMid meet" version="1.0"><defs><clipPath id="bbbcb4d719"><path d="M 193 147 L 445 147 L 445 679 L 193 679 Z M 193 147 " clip-rule="nonzero"/></clipPath><clipPath id="4aa462e52f"><path d="M 232.128906 218.140625 C 232.128906 238.039062 240.40625 256.429688 254.199219 269.457031 L 247.972656 269.457031 C 217.882812 269.457031 193.402344 293.949219 193.402344 324.082031 L 193.402344 553.082031 C 193.402344 578.40625 210.664062 600.035156 234.566406 606.035156 L 234.632812 670.066406 C 234.660156 673.34375 236.65625 676.296875 239.667969 677.515625 C 240.628906 677.902344 241.65625 678.089844 242.683594 678.089844 C 244.800781 678.089844 246.917969 677.226562 248.457031 675.652344 L 313.945312 607.707031 L 390.105469 607.707031 C 391.449219 607.707031 392.804688 607.644531 394.117188 607.546875 C 396.777344 607.351562 399.378906 606.96875 401.941406 606.386719 C 404.382812 605.878906 406.789062 605.171875 409.128906 604.304688 C 416.570312 601.511719 423.246094 597.144531 428.765625 591.628906 C 430.273438 590.117188 431.683594 588.515625 432.996094 586.8125 C 434.25 585.269531 435.375 583.667969 436.402344 582 C 441.664062 573.621094 444.707031 563.707031 444.707031 553.082031 L 444.707031 324.082031 C 444.707031 313.460938 441.664062 303.542969 436.402344 295.167969 L 428.15625 295.167969 C 424.433594 295.167969 420.90625 295.871094 417.632812 297.152344 C 424.433594 304.089844 428.636719 313.589844 428.636719 324.082031 L 428.636719 553.082031 C 428.636719 563.542969 424.433594 573.078125 417.632812 580.011719 C 416.414062 581.292969 415.097656 582.484375 413.6875 583.539062 C 412.242188 584.660156 410.738281 585.6875 409.128906 586.589844 C 403.519531 589.800781 397.035156 591.628906 390.105469 591.628906 L 310.539062 591.628906 C 308.359375 591.628906 306.273438 592.523438 304.765625 594.097656 L 250.671875 650.203125 L 250.609375 599.328125 C 250.609375 595.253906 247.5625 591.851562 243.519531 591.375 C 224.105469 589.125 209.445312 572.695312 209.445312 553.082031 L 209.445312 324.082031 C 209.445312 302.800781 226.738281 285.535156 247.972656 285.535156 L 282.882812 285.535156 C 286.832031 285.535156 290.195312 282.679688 290.808594 278.765625 C 291.445312 274.882812 289.171875 271.125 285.449219 269.875 C 263.152344 262.425781 248.199219 241.632812 248.199219 218.140625 C 248.199219 188.0625 272.652344 163.609375 302.714844 163.609375 C 332.769531 163.609375 357.222656 188.0625 357.222656 218.140625 C 357.222656 241.632812 342.273438 262.425781 319.972656 269.875 C 316.25 271.125 313.972656 274.882812 314.613281 278.765625 C 315.226562 282.679688 318.589844 285.535156 322.507812 285.535156 L 376.789062 285.535156 C 381.535156 279.210938 387.410156 273.824219 394.117188 269.621094 C 392.804688 269.523438 391.449219 269.457031 390.105469 269.457031 L 351.222656 269.457031 C 364.984375 256.429688 373.261719 238.039062 373.261719 218.140625 C 373.261719 179.207031 341.628906 147.5625 302.714844 147.5625 C 263.796875 147.5625 232.128906 179.207031 232.128906 218.140625 " clip-rule="nonzero"/></clipPath><clipPath id="59cea090ab"><path d="M 373 147 L 625 147 L 625 679 L 373 679 Z M 373 147 " clip-rule="nonzero"/></clipPath><clipPath id="1345446936"><path d="M 438.070312 218.140625 C 438.070312 238.039062 446.347656 256.429688 460.140625 269.457031 L 428.15625 269.457031 C 426.808594 269.457031 425.457031 269.523438 424.148438 269.621094 C 421.484375 269.808594 418.886719 270.195312 416.316406 270.773438 C 413.878906 271.289062 411.472656 271.992188 409.128906 272.859375 C 401.6875 275.652344 395.015625 280.019531 389.492188 285.535156 C 387.984375 287.046875 386.578125 288.648438 385.261719 290.351562 C 384.007812 291.890625 382.886719 293.496094 381.859375 295.167969 C 376.597656 303.542969 373.550781 313.460938 373.550781 324.082031 L 373.550781 553.082031 C 373.550781 563.707031 376.597656 573.621094 381.859375 582 L 390.105469 582 C 393.828125 582 397.355469 581.292969 400.628906 580.011719 C 393.828125 573.078125 389.625 563.542969 389.625 553.082031 L 389.625 324.082031 C 389.625 313.589844 393.828125 304.089844 400.628906 297.152344 C 401.847656 295.871094 403.164062 294.683594 404.574219 293.628906 C 406.019531 292.5 407.527344 291.476562 409.128906 290.574219 C 414.742188 287.367188 421.226562 285.535156 428.15625 285.535156 L 488.824219 285.535156 C 492.773438 285.535156 496.136719 282.679688 496.75 278.765625 C 497.386719 274.882812 495.113281 271.125 491.390625 269.875 C 469.09375 262.425781 454.140625 241.632812 454.140625 218.140625 C 454.140625 188.0625 478.59375 163.609375 508.65625 163.609375 C 538.710938 163.609375 563.164062 188.0625 563.164062 218.140625 C 563.164062 241.632812 548.214844 262.425781 525.914062 269.875 C 522.191406 271.125 519.914062 274.882812 520.554688 278.765625 C 521.167969 282.679688 524.53125 285.535156 528.449219 285.535156 L 570.285156 285.535156 C 591.527344 285.535156 608.816406 302.800781 608.816406 324.082031 L 608.816406 553.082031 C 608.816406 574.007812 591.8125 591.304688 570.898438 591.628906 C 566.660156 591.691406 563.257812 595.09375 563.097656 599.328125 C 563.066406 599.84375 563.097656 600.324219 563.164062 600.773438 L 563.164062 650.6875 L 506.5 594 C 504.996094 592.492188 502.972656 591.628906 500.824219 591.628906 L 441.46875 591.628906 C 436.722656 597.953125 430.851562 603.34375 424.148438 607.546875 C 425.457031 607.640625 426.808594 607.707031 428.15625 607.707031 L 497.523438 607.707031 L 565.5 675.75 C 567.042969 677.289062 569.097656 678.089844 571.183594 678.089844 C 572.242188 678.089844 573.265625 677.898438 574.261719 677.484375 C 577.246094 676.234375 579.203125 673.308594 579.203125 670.066406 L 579.203125 606.96875 C 605.03125 602.632812 624.859375 579.980469 624.859375 553.082031 L 624.859375 324.082031 C 624.859375 293.949219 600.375 269.457031 570.285156 269.457031 L 557.164062 269.457031 C 570.925781 256.429688 579.203125 238.039062 579.203125 218.140625 C 579.203125 179.207031 547.570312 147.5625 508.65625 147.5625 C 469.738281 147.5625 438.070312 179.207031 438.070312 218.140625 " clip-rule="nonzero"/></clipPath><clipPath id="49cad70ef6"><path d="M 635 395 L 729.75 395 L 729.75 704 L 635 704 Z M 635 395 " clip-rule="nonzero"/></clipPath></defs><g clip-path="url(#bbbcb4d719)"><g clip-path="url(#4aa462e52f)"><path fill="#dd5022" d="M 193.402344 147.5625 L 193.402344 678.089844 L 444.707031 678.089844 L 444.707031 147.5625 Z M 193.402344 147.5625 " fill-opacity="1" fill-rule="nonzero"/></g></g><g clip-path="url(#59cea090ab)"><g clip-path="url(#1345446936)"><path fill="#00a8e7" d="M 624.859375 678.089844 L 624.859375 147.5625 L 373.550781 147.5625 L 373.550781 678.089844 Z M 624.859375 678.089844 " fill-opacity="1" fill-rule="nonzero"/></g></g><g clip-path="url(#49cad70ef6)"><path stroke-linecap="butt" transform="matrix(3.968579, 0, 0, -3.970045, 752.178374, 512.091546)" fill="none" stroke-linejoin="miter" d="M 0.000331061 0.000428833 L 0.000331061 -11.33052 L 3.571351 -11.33052 C 5.129489 -11.33052 6.462223 -10.776567 7.569554 -9.669644 C 8.675901 -8.562722 9.230059 -7.22556 9.230059 -5.659142 C 9.230059 -4.09174 8.675901 -2.756546 7.569554 -1.653559 C 6.462223 -0.551556 5.129489 0.000428833 3.571351 0.000428833 Z M 0.000331061 -12.525996 L 0.000331061 -19.812004 L -1.181806 -19.812004 L -1.181806 1.194921 L 4.333195 1.194921 C 5.934642 0.976488 7.295921 0.306431 8.416048 -0.814266 C 9.754688 -2.153396 10.424992 -3.769011 10.424992 -5.659142 C 10.424992 -7.559112 9.754688 -9.177679 8.416048 -10.516809 C 7.077407 -11.855939 5.46218 -12.525996 3.571351 -12.525996 Z M 0.000331061 -12.525996 " stroke="#000000" stroke-width="2" stroke-opacity="1" stroke-miterlimit="10"/></g></svg>